<svg version="1.2" xmlns="http://www.w3.org/2000/svg" viewBox="0 0 1650 150" width="1650" height="150">
	<title>t0_wordmark-svg</title>
	<style>
		.s0 { fill: #ffffff } 
		.s1 { fill: #ff9e00 } 
	</style>
	<path id="torch x smpl" class="s0" aria-label="torch x smpl"  d="m171.1 21h-136.3v27.2h54.5v81.8h27.2v-81.8h54.6zm138.2 27.3c-3-13-13.2-23.3-26.3-26.3-2.6-0.6-5.3-1-8-1h-65.7c-2.6 0-5.2 0.3-7.7 0.9-0.1 0-0.2 0-0.3 0.1-13.1 3-23.3 13.3-26.4 26.3-0.2 0.9-0.4 1.9-0.5 2.9-0.3 1.7-0.4 3.4-0.4 5.2v38.3c0 1.8 0.1 3.5 0.4 5.2 0.1 1 0.3 1.9 0.5 2.9 3.1 13 13.3 23.3 26.4 26.3 1.4 0.4 2.9 0.6 4.3 0.8 1.3 0.1 2.5 0.2 3.7 0.2h65.7c1.2 0 2.4-0.1 3.6-0.2 1.5-0.2 3-0.4 4.4-0.8 13.1-3 23.3-13.3 26.3-26.3 0.1-0.1 0.1-0.1 0.1-0.2 0.6-2.5 0.9-5.2 0.9-7.9v-38.3c0-2.8-0.3-5.5-1-8.1zm-97.6 54.5c-5.7 0-10.4-4.7-10.4-10.5v-33.5c0-5.8 4.7-10.5 10.4-10.5h60.8c5.8 0 10.5 4.7 10.5 10.5v33.5c0 5.8-4.7 10.5-10.5 10.5zm216.6 0c7.5 0 14.3-3 19.3-8 4.9-4.9 8-11.7 8-19.2v-19.2c0-2.8-0.4-5.5-1-8.1-0.3-1.2-0.6-2.4-1-3.6-0.3-0.8-0.6-1.5-0.9-2.3-2.3-5.3-5.8-9.9-10.2-13.4-0.6-0.6-1.3-1.1-1.9-1.5-1-0.7-2-1.4-3.1-2-0.7-0.4-1.4-0.7-2.2-1.1-1.1-0.5-2.2-1-3.4-1.4-1.2-0.4-2.4-0.7-3.6-1-2.6-0.6-5.3-1-8.1-1h-100.9v27.3h102.7c2.4 0 4.5 0.8 6.3 2.1v23.1c-1.8 1.3-3.9 2-6.3 2h-102.7v54.6h27.2v-27.3h43.3l27.2 27.3h38.6zm169.9-54.6c-3.1-13-13.3-23.2-26.4-26.3-2.6-0.6-5.3-0.9-8-0.9h-101v27.2h98.6c5.7 0 10.4 4.7 10.4 10.5v10h27.3v-12.4c0-2.8-0.3-5.5-0.9-8.1zm-108.1 44.1v-29.3h-27.3v31.7c0 1.7 0.2 3.5 0.4 5.1 0.1 1 0.3 2 0.5 3 3.1 13 13.3 23.2 26.4 26.3 1.4 0.3 2.9 0.6 4.4 0.7 1.2 0.1 2.4 0.2 3.6 0.2h101v-27.2h-98.5c-5.8 0-10.5-4.7-10.5-10.5zm226.4-71.3v40.9h-81.8v-40.9h-27.2v109h27.2v-40.9h81.8v40.9h27.3v-109zm324.5 0v27.2h136.2v-27.2zm0 68.1h109.1v13.7h-109.1v27.2h136.3v-65.1h-136.3zm147.2 40.9h27.3v-49.3l-27.3-27.3zm109-109v-0.7l-0.7 0.7-27.2 27.2-13.3 13.3-13.3-13.3-27.2-27.2h-27.3v11.4l27.3 27.3v-0.1l26.1 26.1h28.7l26.9-26.8v71.1h27.2v-81.8h0.1v-27.2zm173.6 27.2c-3-13-13.3-23.2-26.3-26.3-2.6-0.6-5.3-0.9-8.1-0.9h-100.9v27.2h98.5c5.8 0 10.5 4.7 10.5 10.5v6.3c0 5.8-4.7 10.5-10.5 10.5h-98.5v54.5h27.2v-27.3h73.7c1.3 0 2.5 0 3.7-0.1 1.5-0.2 3-0.4 4.4-0.8 13-3 23.3-13.3 26.3-26.3 0-0.1 0.1-0.1 0.1-0.2 0.6-2.5 0.9-5.2 0.9-7.9v-11.1c0-2.8-0.4-5.5-1-8.1zm35.1 54.5v-81.7h-27.3v109h136.3v-27.3z"/>
	<path id="torch x smpl" class="s1" aria-label="torch x smpl"  d="m882.3 44.3l-21.3-23.3h-37.1l39.9 43.4c6.2-6.7 12.4-13.5 18.5-20.1zm28.6 31.1l50-54.4h-37l-31.5 34.2-18.5 20.2-50.2 54.6h37l31.7-34.5 31.7 34.5h37z"/>
</svg>